<svg width="1024" height="1024" viewBox="0 0 1024 1024" fill="none" xmlns="http://www.w3.org/2000/svg">
<g clip-path="url(#clip0_5_12)">
<path d="M883.755 304.128L873.259 328.277C871.618 332.21 868.851 335.569 865.305 337.932C861.76 340.294 857.594 341.555 853.333 341.555C849.073 341.555 844.907 340.294 841.361 337.932C837.816 335.569 835.048 332.21 833.408 328.277L822.912 304.128C804.458 261.407 770.662 227.154 728.192 208.128L695.808 193.664C691.879 191.857 688.551 188.961 686.218 185.32C683.885 181.678 682.645 177.445 682.645 173.12C682.645 168.795 683.885 164.562 686.218 160.92C688.551 157.279 691.879 154.383 695.808 152.576L726.4 138.965C769.937 119.398 804.312 83.8776 822.443 39.7227L833.28 13.6533C834.866 9.6151 837.631 6.14818 841.215 3.70453C844.8 1.26089 849.038 -0.0461273 853.376 -0.0461273C857.714 -0.0461273 861.952 1.26089 865.537 3.70453C869.121 6.14818 871.887 9.6151 873.472 13.6533L884.267 39.68C902.378 83.8433 936.738 119.378 980.267 138.965L1010.9 152.619C1014.82 154.431 1018.13 157.327 1020.46 160.963C1022.78 164.6 1024.02 168.825 1024.02 173.141C1024.02 177.457 1022.78 181.683 1020.46 185.32C1018.13 188.956 1014.82 191.852 1010.9 193.664L978.475 208.085C936.013 227.13 902.233 261.398 883.797 304.128M362.667 298.667C362.667 275.103 343.564 256 320 256V256C296.436 256 277.333 275.103 277.333 298.667V725.333C277.333 748.898 296.436 768 320 768V768C343.564 768 362.667 748.898 362.667 725.333V298.667ZM170.667 469.333C170.667 445.769 151.564 426.667 128 426.667V426.667C104.436 426.667 85.3333 445.769 85.3333 469.333V554.667C85.3333 578.231 104.436 597.333 128 597.333V597.333C151.564 597.333 170.667 578.231 170.667 554.667V469.333ZM554.667 128C554.667 104.436 535.564 85.3333 512 85.3333V85.3333C488.436 85.3333 469.333 104.436 469.333 128V896C469.333 919.564 488.436 938.667 512 938.667V938.667C535.564 938.667 554.667 919.564 554.667 896V128ZM746.667 384C746.667 360.436 727.564 341.333 704 341.333V341.333C680.436 341.333 661.333 360.436 661.333 384V725.333C661.333 748.898 680.436 768 704 768V768C727.564 768 746.667 748.897 746.667 725.333V384ZM938.667 469.333C938.667 445.769 919.564 426.667 896 426.667V426.667C872.436 426.667 853.333 445.769 853.333 469.333V554.667C853.333 578.231 872.436 597.333 896 597.333V597.333C919.564 597.333 938.667 578.231 938.667 554.667V469.333Z" fill="#FF5100"/>
</g>
<defs>
<clipPath id="clip0_5_12">
<rect width="1024" height="1024" fill="white"/>
</clipPath>
</defs>
</svg>
